<?xml version="1.0" encoding="UTF-8" standalone="no"?>
<!-- Created with Inkscape (http://www.inkscape.org/) -->

<svg
   width="196.19563mm"
   height="23.554222mm"
   viewBox="0 0 196.19563 23.554222"
   version="1.1"
   id="svg5"
   xml:space="preserve"
   xmlns:inkscape="http://www.inkscape.org/namespaces/inkscape"
   xmlns:sodipodi="http://sodipodi.sourceforge.net/DTD/sodipodi-0.dtd"
   xmlns="http://www.w3.org/2000/svg"
   xmlns:svg="http://www.w3.org/2000/svg"><sodipodi:namedview
     id="namedview7"
     pagecolor="#505050"
     bordercolor="#eeeeee"
     borderopacity="1"
     inkscape:showpageshadow="0"
     inkscape:pageopacity="0"
     inkscape:pagecheckerboard="0"
     inkscape:deskcolor="#505050"
     inkscape:document-units="mm"
     showgrid="false" /><defs
     id="defs2" /><g
     inkscape:label="Layer 1"
     inkscape:groupmode="layer"
     id="layer1"
     transform="translate(-13.80437,-54.770834)"><path
       style="fill:#000000;stroke-width:0.264583"
       d="m 22.940606,77.916983 c -6.658973,-1.61179 -10.515354,-7.735 -8.679035,-13.78068 0.980871,-3.22931 3.046662,-5.56582 6.268494,-7.08999 3.323193,-1.57213 8.370525,-1.93934 12.188474,-0.88677 1.151064,0.31733 2.593382,0.58967 3.205149,0.60518 0.61177,0.0155 1.160984,0.0833 1.220475,0.15063 0.05949,0.0673 0.176303,1.22375 0.259575,2.56982 0.134964,2.1816 0.102817,2.44739 -0.295992,2.44739 -0.246068,0 -0.592751,-0.32742 -0.770408,-0.7276 -0.636175,-1.43302 -1.949358,-2.69188 -3.713539,-3.55994 -1.69314,-0.83309 -1.907278,-0.87182 -4.819226,-0.87161 -2.746233,2e-4 -3.195733,0.0697 -4.548907,0.7039 -3.112913,1.45882 -4.942105,3.94365 -5.507231,7.4812 -0.732639,4.58613 1.77293,9.34549 5.94866,11.29956 4.842514,2.26608 10.664924,0.93013 13.390924,-3.07254 0.549672,-0.80711 1.559822,-1.2915 1.559822,-0.74798 0,0.10243 -0.538435,1.29305 -1.196526,2.64583 l -1.196522,2.4596 -1.118582,0.009 c -0.615217,0.005 -1.892485,0.17953 -2.83837,0.38758 -2.188729,0.48144 -7.325607,0.46888 -9.357235,-0.0229 z m 68.756194,0.17149 c -2.148332,-0.52533 -4.96207,-2.92418 -7.001889,-5.96945 -0.48737,-0.7276 -1.292188,-1.82893 -1.78848,-2.4474 l -0.902351,-1.12448 h -2.363536 -2.363536 v 3.1835 c 0,3.8963 0.324601,4.91618 1.633561,5.13251 0.483989,0.08 1.287529,0.17638 1.785647,0.2142 0.498115,0.0378 0.954521,0.21758 1.014235,0.39948 0.0845,0.25739 -1.099116,0.33073 -5.337437,0.33073 -4.664506,0 -5.446006,-0.057 -5.446006,-0.39687 0,-0.28332 0.288361,-0.39688 1.007763,-0.39688 0.554271,0 1.23888,-0.16899 1.521354,-0.37555 0.491427,-0.35934 0.513591,-0.77433 0.513591,-9.61662 0,-7.31112 -0.07366,-9.32984 -0.352713,-9.66607 -0.228412,-0.27523 -0.873739,-0.45273 -1.831179,-0.50369 -0.825217,-0.0439 -1.523341,-0.21483 -1.580028,-0.38681 -0.162655,-0.49347 2.783811,-0.68402 8.695267,-0.56233 5.756478,0.11851 7.09481,0.38669 8.860388,1.77549 3.370958,2.6516 2.675567,7.81667 -1.313625,9.75704 l -0.99581,0.48437 2.304995,3.15802 c 3.173241,4.34759 4.300487,5.59964 5.45874,6.06308 1.261052,0.50457 1.341986,1.20693 0.134695,1.16891 -0.472943,-0.0149 -1.217084,-0.11443 -1.653646,-0.22118 z m -9.636729,-10.63708 c 2.837757,-0.85021 4.61735,-3.9881 3.950171,-6.96519 -0.615595,-2.7469 -2.425136,-3.84531 -6.334887,-3.84531 h -2.398347 v 5.37986 c 0,2.95893 0.07937,5.45924 0.17639,5.55625 0.288446,0.28845 3.518648,0.20037 4.606673,-0.12561 z m 31.464859,10.4671 c -0.80037,-0.20528 -1.94413,-0.30948 -2.5417,-0.23157 l -1.08648,0.14167 -0.32347,-2.06104 c -0.17791,-1.13357 -0.38651,-2.32892 -0.46356,-2.65634 -0.10713,-0.45528 -0.0244,-0.59385 0.35163,-0.58908 0.33118,0.004 0.67461,0.42296 1.05199,1.28274 1.65247,3.76479 7.63702,4.72325 10.23243,1.63879 0.57277,-0.6807 0.71666,-1.12082 0.71666,-2.19211 0,-1.24879 -0.0859,-1.42512 -1.25678,-2.57954 -0.69122,-0.68152 -2.72578,-2.10306 -4.52125,-3.15898 -1.79547,-1.05592 -3.73885,-2.34841 -4.31864,-2.87222 -3.23527,-2.92287 -2.62916,-6.69948 1.36542,-8.50768 1.45635,-0.65923 4.95266,-0.74014 7.11497,-0.16464 0.78454,0.2088 1.76681,0.31157 2.18281,0.22837 0.41601,-0.0832 0.76269,-0.10663 0.7704,-0.0521 0.008,0.0546 0.1661,1.02742 0.35196,2.16188 0.36274,2.214 0.12577,2.90625 -0.60003,1.75281 -0.95604,-1.51935 -2.66532,-2.87143 -4.19331,-3.31703 -3.66068,-1.06754 -6.98018,1.16575 -5.80565,3.90592 0.5638,1.31535 1.79653,2.32459 5.4512,4.46292 5.00331,2.92742 6.61415,4.70079 6.62808,7.29683 0.0124,2.30969 -2.08284,4.71317 -4.81638,5.52494 -1.6592,0.49273 -4.33654,0.48653 -6.2903,-0.0146 z m 85.06354,-0.0137 c -0.87313,-0.2133 -1.96423,-0.31897 -2.42468,-0.23481 -0.93852,0.17154 -0.88834,0.28004 -1.40469,-3.03744 -0.33969,-2.18247 -0.34347,-2.11667 0.12165,-2.11667 0.21633,0 0.55547,0.38695 0.75366,0.8599 0.91484,2.18319 2.93583,3.60351 5.44845,3.82908 1.93693,0.17389 3.54771,-0.28759 4.70468,-1.34788 0.77984,-0.71467 0.95797,-1.08164 1.0518,-2.16689 0.19393,-2.24295 -0.6277,-3.10757 -5.96852,-6.28079 -2.99469,-1.77928 -5.12382,-3.52637 -5.73293,-4.70427 -0.21224,-0.41041 -0.38588,-1.38909 -0.38588,-2.17485 0,-1.81724 0.93801,-3.20827 2.79982,-4.15201 1.66583,-0.8444 5.25471,-1.05032 7.65497,-0.43923 0.87106,0.22177 1.897,0.34019 2.27987,0.26317 0.67233,-0.13526 0.70624,-0.0819 0.99219,1.5601 0.16284,0.93508 0.29607,1.95828 0.29607,2.27378 0,0.6907 -0.69563,0.77045 -0.90715,0.104 -0.082,-0.2583 -0.59602,-0.93183 -1.14231,-1.49673 -2.51323,-2.59887 -6.674,-2.85152 -8.51051,-0.51677 -0.64279,0.81717 -0.69681,1.62566 -0.18972,2.83931 0.46479,1.11241 1.69506,2.07535 5.41035,4.23471 1.64721,0.95738 3.56648,2.21923 4.26506,2.80411 3.04752,2.55153 3.06819,6.35571 0.0471,8.67167 -2.09965,1.60959 -5.65011,2.08581 -9.15929,1.22851 z M 59.351487,77.862113 c -1.467467,-0.0595 -1.918229,-0.16827 -1.918229,-0.46302 0,-0.28945 0.353094,-0.38528 1.419526,-0.38528 1.035466,0 1.608143,-0.14837 2.116667,-0.54837 l 0.69714,-0.54837 v -4.21413 -4.21413 h -7.408334 -7.408333 v 4.07173 c 0,4.65546 0.17249,5.128 1.97903,5.42164 0.561121,0.0912 1.070573,0.3169 1.132118,0.50153 0.08829,0.26488 -0.925907,0.3205 -4.807357,0.26363 -2.998312,-0.0439 -4.944915,-0.17539 -4.984962,-0.33665 -0.03614,-0.14552 0.444638,-0.3327 1.06839,-0.41594 2.104647,-0.28089 2.031238,0.0613 2.117045,-9.87029 0.07067,-8.17957 0.0417,-8.8553 -0.403241,-9.40477 -0.26366,-0.32561 -0.884332,-0.67483 -1.379275,-0.77606 -0.49494,-0.10122 -0.948481,-0.32981 -1.00787,-0.50797 -0.08253,-0.24759 1.024758,-0.32393 4.698622,-0.32393 3.726979,0 4.782132,0.0743 4.69768,0.33073 -0.05991,0.1819 -0.397251,0.36603 -0.749655,0.40918 -1.181782,0.14469 -2.101646,0.64533 -2.226558,1.21181 -0.06814,0.309 -0.155919,2.25863 -0.195072,4.33251 l -0.07119,3.77069 7.47448,-3.8e-4 7.474479,-3.8e-4 v -3.98077 c 0,-3.87373 -0.01746,-3.99824 -0.649433,-4.63021 -0.49902,-0.49902 -0.927971,-0.64943 -1.852083,-0.64943 -0.892633,0 -1.202651,-0.10231 -1.202651,-0.39688 0,-0.33885 0.734955,-0.39687 5.027084,-0.39687 4.292129,0 5.027083,0.058 5.027083,0.39687 0,0.2659 -0.265919,0.39688 -0.805775,0.39688 -0.50274,0 -1.050018,0.24424 -1.455209,0.64943 l -0.649433,0.64943 v 8.7553 8.75531 l 0.649433,0.64943 c 0.475475,0.47548 0.936136,0.64943 1.719792,0.64943 0.757714,0 1.070359,0.11185 1.070359,0.38293 0,0.31173 -0.676397,0.39782 -3.638021,0.46302 -2.000912,0.044 -4.501224,0.0451 -5.55625,0.002 z m 36.975521,-0.39655 c 0,-0.1881 0.529603,-0.48364 1.176892,-0.65677 1.04062,-0.27832 1.20895,-0.4302 1.45374,-1.31164 0.29931,-1.07782 0.38945,-15.11467 0.108,-16.81786 -0.17422,-1.05425 -1.06518,-1.77381 -2.196326,-1.77381 -0.30566,0 -0.542306,-0.17319 -0.542306,-0.39688 0,-0.33808 0.705557,-0.39687 4.762502,-0.39687 4.05694,0 4.7625,0.0588 4.7625,0.39687 0,0.26263 -0.26267,0.39688 -0.77653,0.39688 -1.28677,0 -2.04842,0.43249 -2.366,1.3435 -0.19405,0.55664 -0.29706,3.59387 -0.29706,8.75864 0,9.15147 0.0798,9.59783 1.76586,9.87876 1.41436,0.23566 1.67373,0.33612 1.67373,0.6483 0,0.17735 -1.66728,0.27288 -4.7625,0.27288 -3.717313,0 -4.762502,-0.0751 -4.762502,-0.342 z m 35.454172,-0.0549 c 0,-0.30785 0.34952,-0.39688 1.55818,-0.39688 1.13955,0 1.72601,-0.13582 2.18282,-0.50551 l 0.62462,-0.50551 0.0789,-9.28408 0.0789,-9.28407 h -3.8031 c -3.70274,0 -3.81931,0.0172 -4.41736,0.65385 -0.33784,0.35961 -0.75855,1.22282 -0.93491,1.91823 -0.21176,0.83497 -0.47962,1.29565 -0.78871,1.35646 -0.40811,0.0803 -0.44818,-0.0553 -0.31286,-1.05833 0.0854,-0.63273 0.23475,-1.96509 0.33196,-2.9608 0.17608,-1.80353 0.17939,-1.8096 0.87091,-1.60153 0.89872,0.2704 20.32511,0.27349 21.21442,0.003 l 0.6765,-0.20548 0.31875,2.71676 c 0.3322,2.83138 0.10294,3.97017 -0.49501,2.45887 -1.0514,-2.65738 -1.2774,-2.98695 -2.15874,-3.14814 -0.47855,-0.0875 -2.29884,-0.12355 -4.04509,-0.08 l -3.175,0.0791 v 9.21782 9.21782 l 0.62463,0.50562 c 0.45687,0.36982 1.04311,0.50561 2.18281,0.50561 1.20867,0 1.55819,0.089 1.55819,0.39688 0,0.34127 -0.85255,0.39687 -6.08542,0.39687 -5.23287,0 -6.08541,-0.0556 -6.08541,-0.39687 z m 20.90208,0 c 0,-0.24091 0.24592,-0.39688 0.62578,-0.39688 0.34417,0 0.93949,-0.24677 1.32291,-0.54837 l 0.69714,-0.54837 -0.004,-8.91048 c -0.002,-4.90077 -0.0915,-9.04149 -0.19843,-9.20161 -0.28845,-0.43199 -1.27431,-0.8995 -1.89679,-0.8995 -0.30944,0 -0.54656,-0.17218 -0.54656,-0.39688 0,-0.33814 0.70801,-0.39687 4.78455,-0.39687 3.70934,0 4.76007,0.0743 4.67563,0.33073 -0.0599,0.1819 -0.39725,0.36603 -0.74966,0.40918 -1.41117,0.17278 -2.08929,0.63143 -2.37572,1.60682 -0.18155,0.61824 -0.25268,3.90389 -0.19958,9.21969 0.0926,9.26843 0.0173,8.92945 2.06049,9.27825 0.63548,0.10849 1.20446,0.34438 1.2644,0.52421 0.0838,0.25151 -0.99497,0.32695 -4.67556,0.32695 -4.07654,0 -4.78455,-0.0587 -4.78455,-0.39687 z m 11.1125,0.0308 c 0,-0.26366 0.49094,-0.39731 1.75514,-0.47781 2.87114,-0.18282 2.74433,0.28555 2.73436,-10.09951 -0.01,-10.14415 0.0831,-9.7415 -2.29552,-9.95634 -0.85253,-0.077 -1.53754,-0.27627 -1.59989,-0.46539 -0.0858,-0.26043 1.89217,-0.33073 9.30574,-0.33073 h 9.41475 v 0.88723 c 0,0.48797 0.0765,1.61907 0.16999,2.51354 0.14164,1.35523 0.10274,1.62631 -0.23342,1.62631 -0.25719,0 -0.5825,-0.55028 -0.89758,-1.51833 -0.34769,-1.06821 -0.69029,-1.61612 -1.15565,-1.84818 -0.44556,-0.22219 -2.06481,-0.33113 -4.96094,-0.33376 l -4.29948,-0.004 v 4.23334 4.23333 h 3.77759 c 4.27103,0 4.81532,-0.18418 5.10483,-1.72739 0.0951,-0.50691 0.33157,-0.91844 0.52774,-0.91844 0.50056,0 0.68458,1.31652 0.59173,4.23333 -0.0636,1.99715 -0.15981,2.51354 -0.46841,2.51354 -0.22508,0 -0.5092,-0.43055 -0.67568,-1.02391 -0.45964,-1.63822 -0.79656,-1.75421 -5.09516,-1.75421 h -3.80913 l 0.0894,4.2206 c 0.0638,3.01184 0.188,4.31896 0.4337,4.56406 0.2548,0.25418 1.49596,0.34346 4.77453,0.34346 5.19164,0 5.52206,-0.12094 6.56712,-2.40366 0.79374,-1.73375 1.56386,-1.98955 1.32652,-0.44061 -0.0836,0.54571 -0.23328,1.73633 -0.33258,2.64584 l -0.18054,1.65364 h -10.28458 c -8.58056,0 -10.28457,-0.0607 -10.28457,-0.36605 z m 23.81577,-15.04593 c 0.002,-0.1819 0.42254,-0.60235 0.93497,-0.93432 0.99718,-0.64602 1.96957,-2.01239 1.97119,-2.76984 7.9e-4,-0.36397 -0.22542,-0.46303 -1.05735,-0.46303 -1.23893,0 -2.11666,-0.71315 -2.11666,-1.71979 0,-1.76217 2.56482,-2.37066 3.9891,-0.94639 0.66479,0.66479 0.7734,0.97503 0.7734,2.20926 0,1.1713 -0.14435,1.63512 -0.78341,2.51733 -1.25353,1.73045 -3.72138,3.13139 -3.71124,2.10678 z"
       id="path302"
       inkscape:export-filename="chritie's.svg"
       inkscape:export-xdpi="96"
       inkscape:export-ydpi="96" /></g></svg>
